<?xml version="1.0" encoding="utf-8"?>
<!-- Generator: Adobe Illustrator 29.8.1, SVG Export Plug-In . SVG Version: 9.03 Build 0)  -->
<svg version="1.1" id="Layer_1" xmlns="http://www.w3.org/2000/svg" xmlns:xlink="http://www.w3.org/1999/xlink" x="0px" y="0px"
	 viewBox="0 0 290 290" style="enable-background:new 0 0 290 290;" xml:space="preserve">
<style type="text/css">
	._x005B_Default_x005D_{fill:#FFFFFF;stroke:#000000;stroke-miterlimit:10;}
	.Drop_x0020_Shadow{fill:none;}
	.Round_x0020_Corners_x0020_2_x0020_pt{fill:#FFFFFF;stroke:#000000;stroke-miterlimit:10;}
	.Live_x0020_Reflect_x0020_X{fill:none;}
	.Bevel_x0020_Soft{fill:url(#SVGID_1_);}
	.Dusk{fill:#FFFFFF;}
	.Foliage_GS{fill:#FFDD00;}
	.Pompadour_GS{fill-rule:evenodd;clip-rule:evenodd;fill:#44ADE2;}
	
		.st0{clip-path:url(#SVGID_00000176740739784185084440000018381367911695564436_);fill:url(#SVGID_00000115481712190379074240000018377471106387065991_);}
	
		.st1{clip-path:url(#SVGID_00000044863181619608331900000017490930715548474775_);fill:url(#SVGID_00000006686388643911978810000002080973062648374706_);}
	
		.st2{clip-path:url(#SVGID_00000165233329708795487420000012019570695419271820_);fill:url(#SVGID_00000024724293442879879550000006613075473863657099_);}
	.st3{fill-rule:evenodd;clip-rule:evenodd;}
	.st4{fill:#FFFFFF;stroke:#CFCFCE;stroke-width:1.5726;stroke-miterlimit:10;}
</style>
<linearGradient id="SVGID_1_" gradientUnits="userSpaceOnUse" x1="-311" y1="-448" x2="-310.2929" y2="-447.2929">
	<stop  offset="0" style="stop-color:#DEDFE3"/>
	<stop  offset="0.1738" style="stop-color:#D8D9DD"/>
	<stop  offset="0.352" style="stop-color:#C9CACD"/>
	<stop  offset="0.5323" style="stop-color:#B4B5B8"/>
	<stop  offset="0.7139" style="stop-color:#989A9C"/>
	<stop  offset="0.8949" style="stop-color:#797C7E"/>
	<stop  offset="1" style="stop-color:#656B6C"/>
</linearGradient>
<g>
	<g>
		<g>
			<g>
				<g>
					<defs>
						<path id="SVGID_00000173160005484963717390000005873770033339312042_" d="M82.53,236.18c1.59-0.9,3.61-0.91,5.25,0.15
							c2.35,1.52,3.01,4.65,1.5,7c-1.52,2.35-4.65,3.02-7,1.5c-1.7-1.1-2.52-3.05-2.26-4.93c-11.18-7.89-20.97-17.79-28.78-29.31
							c-7.22-10.66-12.74-22.69-16.09-35.8c-1.85-0.43-3.37-1.89-3.8-3.87c-0.58-2.73,1.16-5.42,3.89-6.01
							c2.73-0.58,5.42,1.16,6.01,3.89c0.41,1.91-0.32,3.8-1.73,4.96c3.22,12.57,8.51,24.11,15.43,34.31
							C62.42,219.11,71.8,228.6,82.53,236.18 M183.13,249.9c0.18-1.81,1.33-3.47,3.14-4.2c2.59-1.05,5.54,0.2,6.59,2.79
							c1.05,2.59-0.2,5.54-2.79,6.59c-1.87,0.76-3.94,0.32-5.33-0.97c-12.74,4.58-26.32,6.92-40.1,6.76
							c-13-0.15-26.17-2.54-38.97-7.37c-1.41,1.27-3.49,1.68-5.35,0.89c-2.57-1.09-3.78-4.06-2.69-6.63
							c1.09-2.57,4.06-3.78,6.63-2.69c1.8,0.76,2.93,2.44,3.07,4.26c12.28,4.62,24.9,6.91,37.36,7.05
							C157.87,256.54,170.89,254.3,183.13,249.9z M248.84,185.4c-1.27-1.31-1.78-3.27-1.16-5.12c0.88-2.65,3.75-4.08,6.4-3.2
							c2.65,0.88,4.08,3.75,3.2,6.4c-0.64,1.92-2.32,3.2-4.2,3.42c-3.93,10.39-9.37,20.24-16.23,29.19
							c-6.44,8.4-14.13,15.99-22.98,22.49c0.29,1.87-0.49,3.83-2.17,4.96c-2.31,1.57-5.46,0.96-7.02-1.36
							c-1.57-2.31-0.96-5.46,1.36-7.02c1.62-1.09,3.65-1.12,5.25-0.25c8.46-6.22,15.82-13.5,21.99-21.54
							C239.85,204.8,245.07,195.36,248.84,185.4z M171.28,39.36c-1.14,1.43-3.01,2.19-4.92,1.82c-2.74-0.53-4.54-3.18-4.01-5.93
							c0.53-2.74,3.18-4.54,5.93-4.01c1.99,0.38,3.47,1.88,3.94,3.72c29.31,6.87,53.46,24.56,69.06,47.96
							c15.32,23,22.37,51.51,17.91,80.68c1.53,1.12,2.36,3.06,1.98,5.04c-0.53,2.74-3.18,4.54-5.93,4.01
							c-2.74-0.53-4.54-3.18-4.01-5.93c0.37-1.91,1.77-3.36,3.52-3.89c4.26-28-2.51-55.36-17.22-77.43
							C222.58,62.96,199.41,45.98,171.28,39.36z M58.91,186.21c1.58,0.01,3.09,0.88,3.86,2.38c1.1,2.15,0.25,4.78-1.9,5.88
							c-2.15,1.1-4.78,0.25-5.88-1.9c-0.8-1.56-0.57-3.36,0.43-4.66c-4.95-10.73-8-22.36-8.87-34.35
							c-0.8-11.09,0.27-22.47,3.43-33.72c-1.19-1.12-1.71-2.87-1.17-4.53c0.74-2.3,3.21-3.55,5.5-2.81c2.3,0.74,3.55,3.21,2.81,5.5
							c-0.52,1.6-1.88,2.7-3.43,2.96c-3.02,10.79-4.04,21.7-3.28,32.32C51.24,164.76,54.16,175.91,58.91,186.21z M128.22,239.91
							c0.91-1.28,2.49-2.02,4.16-1.79c2.39,0.33,4.06,2.54,3.72,4.93c-0.33,2.39-2.54,4.06-4.93,3.72
							c-1.73-0.24-3.08-1.46-3.57-3.03c-11.51-2.07-22.67-6.19-32.91-12.26c-9.66-5.73-18.48-13.2-25.96-22.34
							c-1.6,0.34-3.33-0.25-4.39-1.64c-1.45-1.93-1.07-4.66,0.86-6.12c1.93-1.45,4.66-1.07,6.12,0.85c1.02,1.35,1.13,3.09,0.46,4.51
							c7.18,8.76,15.64,15.92,24.9,21.41C106.47,233.97,117.17,237.91,128.22,239.91z M205.21,220.05
							c-0.38-1.53,0.08-3.21,1.34-4.33c1.81-1.6,4.57-1.43,6.17,0.37c1.6,1.81,1.43,4.57-0.37,6.17c-1.31,1.16-3.11,1.39-4.62,0.75
							c-7.43,6.08-15.75,11.09-24.74,14.82c-8.44,3.5-17.47,5.86-26.89,6.9c-0.59,1.52-2.02,2.65-3.76,2.77
							c-2.41,0.17-4.5-1.64-4.67-4.05c-0.17-2.41,1.64-4.5,4.05-4.67c1.68-0.12,3.21,0.73,4.04,2.08c9.02-1,17.66-3.27,25.74-6.62
							C190.11,230.67,198.09,225.87,205.21,220.05z M210.26,77.34c-1.47,0.58-3.19,0.34-4.46-0.77c-1.82-1.58-2.02-4.34-0.44-6.16
							c1.58-1.82,4.34-2.02,6.16-0.44c1.32,1.14,1.79,2.91,1.34,4.48c18.95,17.8,29.38,41.46,30.93,65.69
							c1.53,23.81-5.51,48.18-21.44,68.07c0.66,1.5,0.45,3.31-0.7,4.63c-1.58,1.82-4.34,2.02-6.16,0.44
							c-1.82-1.58-2.02-4.34-0.44-6.16c1.1-1.27,2.78-1.75,4.31-1.39c15.28-19.1,22.03-42.49,20.56-65.34
							C238.44,117.14,228.44,94.44,210.26,77.34z M61.6,93.67C75.34,71.9,96.33,57.23,119.58,51c23.49-6.29,49.29-3.97,72.25,8.34
							c1.35-0.92,3.17-1.04,4.68-0.16c2.08,1.22,2.77,3.9,1.55,5.98c-1.22,2.08-3.9,2.77-5.98,1.55c-1.45-0.85-2.23-2.41-2.15-3.98
							c-22.04-11.8-46.8-14.02-69.34-7.98C98.27,60.73,78.13,74.8,64.93,95.68c0.84,1.33,0.94,3.07,0.09,4.53
							c-1.21,2.09-3.88,2.81-5.97,1.6c-2.09-1.21-2.81-3.88-1.6-5.97C58.33,94.33,59.97,93.54,61.6,93.67z M67.19,139.56
							c1.13,0.66,1.85,1.91,1.78,3.31c-0.1,2-1.8,3.53-3.8,3.43c-2-0.1-3.54-1.81-3.43-3.8c0.07-1.45,0.99-2.65,2.24-3.17
							c0.89-9.76,3.52-19.38,7.87-28.35c4.02-8.3,9.51-16.03,16.44-22.8c-0.39-1.3-0.04-2.77,1.04-3.74
							c1.49-1.34,3.78-1.22,5.12,0.26c1.34,1.49,1.22,3.78-0.26,5.12c-1.04,0.94-2.47,1.16-3.69,0.71
							c-6.64,6.5-11.9,13.91-15.76,21.86C70.57,120.97,68.05,130.19,67.19,139.56z M94.69,206.87c1.19-0.54,2.63-0.42,3.73,0.44
							c1.58,1.23,1.86,3.51,0.63,5.09c-1.23,1.58-3.51,1.86-5.08,0.63c-1.14-0.89-1.61-2.33-1.31-3.65
							c-7.4-6.26-13.72-13.85-18.55-22.45c-4.56-8.12-7.8-17.14-9.38-26.81c-1.29-0.42-2.29-1.56-2.47-3
							c-0.25-1.99,1.16-3.79,3.15-4.04c1.99-0.25,3.79,1.16,4.04,3.15c0.17,1.39-0.47,2.69-1.54,3.43c1.53,9.27,4.63,17.92,9,25.7
							C81.54,193.58,87.59,200.85,94.69,206.87z M158.23,224.53c0.36-1.26,1.39-2.27,2.76-2.56c1.96-0.4,3.87,0.86,4.27,2.82
							c0.4,1.96-0.86,3.87-2.82,4.28c-1.42,0.29-2.81-0.29-3.63-1.38c-7.85,1.29-15.91,1.44-23.92,0.38
							c-7.51-0.99-14.98-3.03-22.17-6.2c-1.06,0.85-2.55,1.06-3.85,0.43c-1.8-0.88-2.55-3.04-1.67-4.84
							c0.87-1.8,3.04-2.55,4.84-1.67c1.26,0.61,2,1.86,2.04,3.17c6.89,3.02,14.04,4.98,21.23,5.92
							C142.98,225.9,150.7,225.75,158.23,224.53z M221.03,124.13c-1.29-0.19-2.43-1.08-2.89-2.4c-0.65-1.89,0.35-3.95,2.24-4.61
							c1.89-0.65,3.95,0.35,4.61,2.24c0.47,1.37,0.08,2.83-0.89,3.78c6.23,20.64,3.91,41.96-5.02,60.01
							c-8.78,17.74-23.94,32.32-43.63,39.99c-0.15,1.35-1.05,2.56-2.42,3.03c-1.89,0.65-3.95-0.35-4.61-2.24
							c-0.65-1.89,0.35-3.95,2.24-4.61c1.32-0.46,2.72-0.11,3.67,0.79c18.89-7.39,33.44-21.38,41.86-38.41
							C224.77,164.39,227,143.94,221.03,124.13z M107.49,74.21c18.89-9.94,40.05-11.77,59.34-6.61
							c19.48,5.22,37.05,17.59,48.43,35.95c1.35-0.1,2.71,0.57,3.42,1.83c0.99,1.74,0.37,3.95-1.37,4.94
							c-1.74,0.99-3.95,0.38-4.94-1.37c-0.69-1.21-0.6-2.66,0.11-3.75c-10.94-17.61-27.8-29.48-46.5-34.49
							c-18.5-4.96-38.81-3.21-56.94,6.32c0.05,1.3-0.6,2.59-1.81,3.29c-1.73,1-3.95,0.41-4.95-1.33c-1-1.73-0.41-3.95,1.33-4.95
							C104.87,73.33,106.38,73.44,107.49,74.21z M104.73,98.58c0.26,1.02-0.03,2.15-0.87,2.9c-1.2,1.08-3.04,0.99-4.12-0.21
							c-1.08-1.2-0.99-3.04,0.21-4.13c0.87-0.78,2.07-0.95,3.09-0.53c6.07-5.06,13.05-9.04,20.65-11.67
							c7.02-2.44,14.56-3.71,22.37-3.62c0.52-0.97,1.56-1.6,2.73-1.54c1.61,0.08,2.85,1.46,2.77,3.07
							c-0.08,1.61-1.46,2.85-3.07,2.77c-1.13-0.06-2.07-0.74-2.51-1.7c-7.49-0.08-14.72,1.15-21.44,3.48
							C117.25,89.92,110.55,93.73,104.73,98.58z M82.04,152.63c0.99,0.37,1.74,1.26,1.88,2.38c0.2,1.6-0.94,3.06-2.54,3.26
							c-1.6,0.2-3.06-0.94-3.26-2.54c-0.14-1.16,0.41-2.24,1.34-2.83c-0.65-7.79,0.07-15.71,2.22-23.37
							c2.03-7.23,5.33-14.22,9.94-20.63c-0.5-0.98-0.42-2.2,0.3-3.12c0.99-1.27,2.83-1.5,4.1-0.51c1.27,0.99,1.5,2.83,0.51,4.1
							c-0.69,0.89-1.8,1.27-2.84,1.08c-4.41,6.15-7.57,12.86-9.52,19.78C82.11,137.55,81.42,145.15,82.04,152.63z M108.19,198.91
							c0.92-0.51,2.09-0.5,3.03,0.12c1.35,0.89,1.72,2.7,0.83,4.05c-0.89,1.35-2.7,1.72-4.05,0.83c-0.97-0.64-1.44-1.77-1.28-2.85
							c-5.21-3.74-9.89-8.25-13.85-13.41c-3.72-4.85-6.81-10.27-9.11-16.17c-1.09-0.12-2.06-0.85-2.44-1.95
							c-0.53-1.52,0.28-3.19,1.81-3.71c1.52-0.53,3.19,0.28,3.71,1.81c0.37,1.07,0.08,2.2-0.64,2.97
							c2.21,5.65,5.17,10.84,8.73,15.48C98.72,191,103.2,195.32,108.19,198.91z M201.22,177.48c-0.62-0.85-0.77-2-0.28-3.02
							c0.71-1.45,2.45-2.05,3.91-1.35c1.45,0.7,2.05,2.45,1.35,3.9c-0.51,1.05-1.57,1.66-2.66,1.64
							c-8.21,15.32-21.69,26.14-37.07,31.34c-15.11,5.11-32.06,4.78-47.66-2.07c-0.85,0.69-2.06,0.86-3.11,0.35
							c-1.45-0.7-2.05-2.45-1.35-3.9c0.71-1.45,2.45-2.05,3.91-1.35c1.01,0.49,1.61,1.49,1.64,2.54
							c14.98,6.56,31.25,6.87,45.75,1.97C180.39,202.56,193.32,192.18,201.22,177.48z M164.95,84.31
							c16.44,5.1,29.54,16.12,37.59,30.06c8.13,14.08,11.09,31.14,7.11,48.1c0.83,0.71,1.22,1.87,0.91,2.99
							c-0.43,1.55-2.04,2.47-3.59,2.04c-1.55-0.43-2.47-2.04-2.04-3.59c0.3-1.08,1.17-1.85,2.2-2.08
							c3.81-16.28,0.96-32.65-6.85-46.16c-7.72-13.37-20.29-23.95-36.06-28.86c-0.71,0.77-1.82,1.14-2.91,0.84
							c-1.56-0.42-2.48-2.02-2.07-3.58c0.42-1.56,2.02-2.48,3.58-2.07C163.96,82.31,164.76,83.23,164.95,84.31z M31.65,141.81
							c1.17-29.79,13.73-56.65,33.44-76.36c19.91-19.91,47.13-32.52,77.29-33.47c0.82-1.71,2.58-2.88,4.6-2.86
							c2.79,0.02,5.04,2.31,5.02,5.1c-0.02,2.79-2.31,5.04-5.1,5.02c-1.95-0.02-3.63-1.13-4.46-2.75
							c-28.94,0.93-55.05,13.04-74.16,32.15C49.35,87.55,37.3,113.32,36.15,141.9c1.61,0.84,2.72,2.54,2.72,4.48
							c0,2.79-2.27,5.06-5.06,5.06c-2.79,0-5.06-2.27-5.06-5.06C28.75,144.37,29.93,142.62,31.65,141.81z"/>
					</defs>
					<clipPath id="SVGID_00000067940968001274040760000005201886829566084493_">
						<use xlink:href="#SVGID_00000173160005484963717390000005873770033339312042_"  style="overflow:visible;"/>
					</clipPath>
					
						<linearGradient id="SVGID_00000080202155331974989080000013827618066935445888_" gradientUnits="userSpaceOnUse" x1="28.7474" y1="145.0648" x2="263.6465" y2="145.0648">
						<stop  offset="0" style="stop-color:#F8973D"/>
						<stop  offset="0.4791" style="stop-color:#F7BB2E"/>
						<stop  offset="0.8199" style="stop-color:#F99F34"/>
						<stop  offset="1" style="stop-color:#ED7B37"/>
					</linearGradient>
					
						<rect x="28.75" y="29.1" style="clip-path:url(#SVGID_00000067940968001274040760000005201886829566084493_);fill:url(#SVGID_00000080202155331974989080000013827618066935445888_);" width="234.9" height="231.93"/>
				</g>
			</g>
		</g>
		<g>
			<g>
				<g>
					<defs>
						<path id="SVGID_00000097466183747705625420000015070876278765569924_" d="M82.53,236.18c1.59-0.9,3.61-0.91,5.25,0.15
							c2.35,1.52,3.01,4.65,1.5,7c-1.52,2.35-4.65,3.02-7,1.5c-1.7-1.1-2.52-3.05-2.26-4.93c-11.18-7.89-20.97-17.79-28.78-29.31
							c-7.22-10.66-12.74-22.69-16.09-35.8c-1.85-0.43-3.37-1.89-3.8-3.87c-0.58-2.73,1.16-5.42,3.89-6.01
							c2.73-0.58,5.42,1.16,6.01,3.89c0.41,1.91-0.32,3.8-1.73,4.96c3.22,12.57,8.51,24.11,15.43,34.31
							C62.42,219.11,71.8,228.6,82.53,236.18 M183.13,249.9c0.18-1.81,1.33-3.47,3.14-4.2c2.59-1.05,5.54,0.2,6.59,2.79
							c1.05,2.59-0.2,5.54-2.79,6.59c-1.87,0.76-3.94,0.32-5.33-0.97c-12.74,4.58-26.32,6.92-40.1,6.76
							c-13-0.15-26.17-2.54-38.97-7.37c-1.41,1.27-3.49,1.68-5.35,0.89c-2.57-1.09-3.78-4.06-2.69-6.63
							c1.09-2.57,4.06-3.78,6.63-2.69c1.8,0.76,2.93,2.44,3.07,4.26c12.28,4.62,24.9,6.91,37.36,7.05
							C157.87,256.54,170.89,254.3,183.13,249.9z M248.84,185.4c-1.27-1.31-1.78-3.27-1.16-5.12c0.88-2.65,3.75-4.08,6.4-3.2
							c2.65,0.88,4.08,3.75,3.2,6.4c-0.64,1.92-2.32,3.2-4.2,3.42c-3.93,10.39-9.37,20.24-16.23,29.19
							c-6.44,8.4-14.13,15.99-22.98,22.49c0.29,1.87-0.49,3.83-2.17,4.96c-2.31,1.57-5.46,0.96-7.02-1.36
							c-1.57-2.31-0.96-5.46,1.36-7.02c1.62-1.09,3.65-1.12,5.25-0.25c8.46-6.22,15.82-13.5,21.99-21.54
							C239.85,204.8,245.07,195.36,248.84,185.4z M171.28,39.36c-1.14,1.43-3.01,2.19-4.92,1.82c-2.74-0.53-4.54-3.18-4.01-5.93
							c0.53-2.74,3.18-4.54,5.93-4.01c1.99,0.38,3.47,1.88,3.94,3.72c29.31,6.87,53.46,24.56,69.06,47.96
							c15.32,23,22.37,51.51,17.91,80.68c1.53,1.12,2.36,3.06,1.98,5.04c-0.53,2.74-3.18,4.54-5.93,4.01
							c-2.74-0.53-4.54-3.18-4.01-5.93c0.37-1.91,1.77-3.36,3.52-3.89c4.26-28-2.51-55.36-17.22-77.43
							C222.58,62.96,199.41,45.98,171.28,39.36z M58.91,186.21c1.58,0.01,3.09,0.88,3.86,2.38c1.1,2.15,0.25,4.78-1.9,5.88
							c-2.15,1.1-4.78,0.25-5.88-1.9c-0.8-1.56-0.57-3.36,0.43-4.66c-4.95-10.73-8-22.36-8.87-34.35
							c-0.8-11.09,0.27-22.47,3.43-33.72c-1.19-1.12-1.71-2.87-1.17-4.53c0.74-2.3,3.21-3.55,5.5-2.81c2.3,0.74,3.55,3.21,2.81,5.5
							c-0.52,1.6-1.88,2.7-3.43,2.96c-3.02,10.79-4.04,21.7-3.28,32.32C51.24,164.76,54.16,175.91,58.91,186.21z M128.22,239.91
							c0.91-1.28,2.49-2.02,4.16-1.79c2.39,0.33,4.06,2.54,3.72,4.93c-0.33,2.39-2.54,4.06-4.93,3.72
							c-1.73-0.24-3.08-1.46-3.57-3.03c-11.51-2.07-22.67-6.19-32.91-12.26c-9.66-5.73-18.48-13.2-25.96-22.34
							c-1.6,0.34-3.33-0.25-4.39-1.64c-1.45-1.93-1.07-4.66,0.86-6.12c1.93-1.45,4.66-1.07,6.12,0.85c1.02,1.35,1.13,3.09,0.46,4.51
							c7.18,8.76,15.64,15.92,24.9,21.41C106.47,233.97,117.17,237.91,128.22,239.91z M205.21,220.05
							c-0.38-1.53,0.08-3.21,1.34-4.33c1.81-1.6,4.57-1.43,6.17,0.37c1.6,1.81,1.43,4.57-0.37,6.17c-1.31,1.16-3.11,1.39-4.62,0.75
							c-7.43,6.08-15.75,11.09-24.74,14.82c-8.44,3.5-17.47,5.86-26.89,6.9c-0.59,1.52-2.02,2.65-3.76,2.77
							c-2.41,0.17-4.5-1.64-4.67-4.05c-0.17-2.41,1.64-4.5,4.05-4.67c1.68-0.12,3.21,0.73,4.04,2.08c9.02-1,17.66-3.27,25.74-6.62
							C190.11,230.67,198.09,225.87,205.21,220.05z M210.26,77.34c-1.47,0.58-3.19,0.34-4.46-0.77c-1.82-1.58-2.02-4.34-0.44-6.16
							c1.58-1.82,4.34-2.02,6.16-0.44c1.32,1.14,1.79,2.91,1.34,4.48c18.95,17.8,29.38,41.46,30.93,65.69
							c1.53,23.81-5.51,48.18-21.44,68.07c0.66,1.5,0.45,3.31-0.7,4.63c-1.58,1.82-4.34,2.02-6.16,0.44
							c-1.82-1.58-2.02-4.34-0.44-6.16c1.1-1.27,2.78-1.75,4.31-1.39c15.28-19.1,22.03-42.49,20.56-65.34
							C238.44,117.14,228.44,94.44,210.26,77.34z M61.6,93.67C75.34,71.9,96.33,57.23,119.58,51c23.49-6.29,49.29-3.97,72.25,8.34
							c1.35-0.92,3.17-1.04,4.68-0.16c2.08,1.22,2.77,3.9,1.55,5.98c-1.22,2.08-3.9,2.77-5.98,1.55c-1.45-0.85-2.23-2.41-2.15-3.98
							c-22.04-11.8-46.8-14.02-69.34-7.98C98.27,60.73,78.13,74.8,64.93,95.68c0.84,1.33,0.94,3.07,0.09,4.53
							c-1.21,2.09-3.88,2.81-5.97,1.6c-2.09-1.21-2.81-3.88-1.6-5.97C58.33,94.33,59.97,93.54,61.6,93.67z M67.19,139.56
							c1.13,0.66,1.85,1.91,1.78,3.31c-0.1,2-1.8,3.53-3.8,3.43c-2-0.1-3.54-1.81-3.43-3.8c0.07-1.45,0.99-2.65,2.24-3.17
							c0.89-9.76,3.52-19.38,7.87-28.35c4.02-8.3,9.51-16.03,16.44-22.8c-0.39-1.3-0.04-2.77,1.04-3.74
							c1.49-1.34,3.78-1.22,5.12,0.26c1.34,1.49,1.22,3.78-0.26,5.12c-1.04,0.94-2.47,1.16-3.69,0.71
							c-6.64,6.5-11.9,13.91-15.76,21.86C70.57,120.97,68.05,130.19,67.19,139.56z M94.69,206.87c1.19-0.54,2.63-0.42,3.73,0.44
							c1.58,1.23,1.86,3.51,0.63,5.09c-1.23,1.58-3.51,1.86-5.08,0.63c-1.14-0.89-1.61-2.33-1.31-3.65
							c-7.4-6.26-13.72-13.85-18.55-22.45c-4.56-8.12-7.8-17.14-9.38-26.81c-1.29-0.42-2.29-1.56-2.47-3
							c-0.25-1.99,1.16-3.79,3.15-4.04c1.99-0.25,3.79,1.16,4.04,3.15c0.17,1.39-0.47,2.69-1.54,3.43c1.53,9.27,4.63,17.92,9,25.7
							C81.54,193.58,87.59,200.85,94.69,206.87z M158.23,224.53c0.36-1.26,1.39-2.27,2.76-2.56c1.96-0.4,3.87,0.86,4.27,2.82
							c0.4,1.96-0.86,3.87-2.82,4.28c-1.42,0.29-2.81-0.29-3.63-1.38c-7.85,1.29-15.91,1.44-23.92,0.38
							c-7.51-0.99-14.98-3.03-22.17-6.2c-1.06,0.85-2.55,1.06-3.85,0.43c-1.8-0.88-2.55-3.04-1.67-4.84
							c0.87-1.8,3.04-2.55,4.84-1.67c1.26,0.61,2,1.86,2.04,3.17c6.89,3.02,14.04,4.98,21.23,5.92
							C142.98,225.9,150.7,225.75,158.23,224.53z M221.03,124.13c-1.29-0.19-2.43-1.08-2.89-2.4c-0.65-1.89,0.35-3.95,2.24-4.61
							c1.89-0.65,3.95,0.35,4.61,2.24c0.47,1.37,0.08,2.83-0.89,3.78c6.23,20.64,3.91,41.96-5.02,60.01
							c-8.78,17.74-23.94,32.32-43.63,39.99c-0.15,1.35-1.05,2.56-2.42,3.03c-1.89,0.65-3.95-0.35-4.61-2.24
							c-0.65-1.89,0.35-3.95,2.24-4.61c1.32-0.46,2.72-0.11,3.67,0.79c18.89-7.39,33.44-21.38,41.86-38.41
							C224.77,164.39,227,143.94,221.03,124.13z M107.49,74.21c18.89-9.94,40.05-11.77,59.34-6.61
							c19.48,5.22,37.05,17.59,48.43,35.95c1.35-0.1,2.71,0.57,3.42,1.83c0.99,1.74,0.37,3.95-1.37,4.94
							c-1.74,0.99-3.95,0.38-4.94-1.37c-0.69-1.21-0.6-2.66,0.11-3.75c-10.94-17.61-27.8-29.48-46.5-34.49
							c-18.5-4.96-38.81-3.21-56.94,6.32c0.05,1.3-0.6,2.59-1.81,3.29c-1.73,1-3.95,0.41-4.95-1.33c-1-1.73-0.41-3.95,1.33-4.95
							C104.87,73.33,106.38,73.44,107.49,74.21z M104.73,98.58c0.26,1.02-0.03,2.15-0.87,2.9c-1.2,1.08-3.04,0.99-4.12-0.21
							c-1.08-1.2-0.99-3.04,0.21-4.13c0.87-0.78,2.07-0.95,3.09-0.53c6.07-5.06,13.05-9.04,20.65-11.67
							c7.02-2.44,14.56-3.71,22.37-3.62c0.52-0.97,1.56-1.6,2.73-1.54c1.61,0.08,2.85,1.46,2.77,3.07
							c-0.08,1.61-1.46,2.85-3.07,2.77c-1.13-0.06-2.07-0.74-2.51-1.7c-7.49-0.08-14.72,1.15-21.44,3.48
							C117.25,89.92,110.55,93.73,104.73,98.58z M82.04,152.63c0.99,0.37,1.74,1.26,1.88,2.38c0.2,1.6-0.94,3.06-2.54,3.26
							c-1.6,0.2-3.06-0.94-3.26-2.54c-0.14-1.16,0.41-2.24,1.34-2.83c-0.65-7.79,0.07-15.71,2.22-23.37
							c2.03-7.23,5.33-14.22,9.94-20.63c-0.5-0.98-0.42-2.2,0.3-3.12c0.99-1.27,2.83-1.5,4.1-0.51c1.27,0.99,1.5,2.83,0.51,4.1
							c-0.69,0.89-1.8,1.27-2.84,1.08c-4.41,6.15-7.57,12.86-9.52,19.78C82.11,137.55,81.42,145.15,82.04,152.63z M108.19,198.91
							c0.92-0.51,2.09-0.5,3.03,0.12c1.35,0.89,1.72,2.7,0.83,4.05c-0.89,1.35-2.7,1.72-4.05,0.83c-0.97-0.64-1.44-1.77-1.28-2.85
							c-5.21-3.74-9.89-8.25-13.85-13.41c-3.72-4.85-6.81-10.27-9.11-16.17c-1.09-0.12-2.06-0.85-2.44-1.95
							c-0.53-1.52,0.28-3.19,1.81-3.71c1.52-0.53,3.19,0.28,3.71,1.81c0.37,1.07,0.08,2.2-0.64,2.97
							c2.21,5.65,5.17,10.84,8.73,15.48C98.72,191,103.2,195.32,108.19,198.91z M201.22,177.48c-0.62-0.85-0.77-2-0.28-3.02
							c0.71-1.45,2.45-2.05,3.91-1.35c1.45,0.7,2.05,2.45,1.35,3.9c-0.51,1.05-1.57,1.66-2.66,1.64
							c-8.21,15.32-21.69,26.14-37.07,31.34c-15.11,5.11-32.06,4.78-47.66-2.07c-0.85,0.69-2.06,0.86-3.11,0.35
							c-1.45-0.7-2.05-2.45-1.35-3.9c0.71-1.45,2.45-2.05,3.91-1.35c1.01,0.49,1.61,1.49,1.64,2.54
							c14.98,6.56,31.25,6.87,45.75,1.97C180.39,202.56,193.32,192.18,201.22,177.48z M164.95,84.31
							c16.44,5.1,29.54,16.12,37.59,30.06c8.13,14.08,11.09,31.14,7.11,48.1c0.83,0.71,1.22,1.87,0.91,2.99
							c-0.43,1.55-2.04,2.47-3.59,2.04c-1.55-0.43-2.47-2.04-2.04-3.59c0.3-1.08,1.17-1.85,2.2-2.08
							c3.81-16.28,0.96-32.65-6.85-46.16c-7.72-13.37-20.29-23.95-36.06-28.86c-0.71,0.77-1.82,1.14-2.91,0.84
							c-1.56-0.42-2.48-2.02-2.07-3.58c0.42-1.56,2.02-2.48,3.58-2.07C163.96,82.31,164.76,83.23,164.95,84.31z M31.65,141.81
							c1.17-29.79,13.73-56.65,33.44-76.36c19.91-19.91,47.13-32.52,77.29-33.47c0.82-1.71,2.58-2.88,4.6-2.86
							c2.79,0.02,5.04,2.31,5.02,5.1c-0.02,2.79-2.31,5.04-5.1,5.02c-1.95-0.02-3.63-1.13-4.46-2.75
							c-28.94,0.93-55.05,13.04-74.16,32.15C49.35,87.55,37.3,113.32,36.15,141.9c1.61,0.84,2.72,2.54,2.72,4.48
							c0,2.79-2.27,5.06-5.06,5.06c-2.79,0-5.06-2.27-5.06-5.06C28.75,144.37,29.93,142.62,31.65,141.81z"/>
					</defs>
					<clipPath id="SVGID_00000174571182767539477570000011874771534406989742_">
						<use xlink:href="#SVGID_00000097466183747705625420000015070876278765569924_"  style="overflow:visible;"/>
					</clipPath>
					
						<linearGradient id="SVGID_00000018947319447721615500000001356092625521117065_" gradientUnits="userSpaceOnUse" x1="28.7474" y1="145.0648" x2="263.6465" y2="145.0648">
						<stop  offset="0" style="stop-color:#F8973D"/>
						<stop  offset="0.4791" style="stop-color:#F7BB2E"/>
						<stop  offset="0.8199" style="stop-color:#F99F34"/>
						<stop  offset="1" style="stop-color:#ED7B37"/>
					</linearGradient>
					
						<rect x="28.75" y="29.1" style="clip-path:url(#SVGID_00000174571182767539477570000011874771534406989742_);fill:url(#SVGID_00000018947319447721615500000001356092625521117065_);" width="234.9" height="231.93"/>
				</g>
			</g>
		</g>
		<g>
			<g>
				<g>
					<defs>
						<path id="SVGID_00000002353635104322469770000009689238051987657116_" d="M82.53,236.18c1.59-0.9,3.61-0.91,5.25,0.15
							c2.35,1.52,3.01,4.65,1.5,7c-1.52,2.35-4.65,3.02-7,1.5c-1.7-1.1-2.52-3.05-2.26-4.93c-11.18-7.89-20.97-17.79-28.78-29.31
							c-7.22-10.66-12.74-22.69-16.09-35.8c-1.85-0.43-3.37-1.89-3.8-3.87c-0.58-2.73,1.16-5.42,3.89-6.01
							c2.73-0.58,5.42,1.16,6.01,3.89c0.41,1.91-0.32,3.8-1.73,4.96c3.22,12.57,8.51,24.11,15.43,34.31
							C62.42,219.11,71.8,228.6,82.53,236.18 M183.13,249.9c0.18-1.81,1.33-3.47,3.14-4.2c2.59-1.05,5.54,0.2,6.59,2.79
							c1.05,2.59-0.2,5.54-2.79,6.59c-1.87,0.76-3.94,0.32-5.33-0.97c-12.74,4.58-26.32,6.92-40.1,6.76
							c-13-0.15-26.17-2.54-38.97-7.37c-1.41,1.27-3.49,1.68-5.35,0.89c-2.57-1.09-3.78-4.06-2.69-6.63
							c1.09-2.57,4.06-3.78,6.63-2.69c1.8,0.76,2.93,2.44,3.07,4.26c12.28,4.62,24.9,6.91,37.36,7.05
							C157.87,256.54,170.89,254.3,183.13,249.9z M248.84,185.4c-1.27-1.31-1.78-3.27-1.16-5.12c0.88-2.65,3.75-4.08,6.4-3.2
							c2.65,0.88,4.08,3.75,3.2,6.4c-0.64,1.92-2.32,3.2-4.2,3.42c-3.93,10.39-9.37,20.24-16.23,29.19
							c-6.44,8.4-14.13,15.99-22.98,22.49c0.29,1.87-0.49,3.83-2.17,4.96c-2.31,1.57-5.46,0.96-7.02-1.36
							c-1.57-2.31-0.96-5.46,1.36-7.02c1.62-1.09,3.65-1.12,5.25-0.25c8.46-6.22,15.82-13.5,21.99-21.54
							C239.85,204.8,245.07,195.36,248.84,185.4z M171.28,39.36c-1.14,1.43-3.01,2.19-4.92,1.82c-2.74-0.53-4.54-3.18-4.01-5.93
							c0.53-2.74,3.18-4.54,5.93-4.01c1.99,0.38,3.47,1.88,3.94,3.72c29.31,6.87,53.46,24.56,69.06,47.96
							c15.32,23,22.37,51.51,17.91,80.68c1.53,1.12,2.36,3.06,1.98,5.04c-0.53,2.74-3.18,4.54-5.93,4.01
							c-2.74-0.53-4.54-3.18-4.01-5.93c0.37-1.91,1.77-3.36,3.52-3.89c4.26-28-2.51-55.36-17.22-77.43
							C222.58,62.96,199.41,45.98,171.28,39.36z M58.91,186.21c1.58,0.01,3.09,0.88,3.86,2.38c1.1,2.15,0.25,4.78-1.9,5.88
							c-2.15,1.1-4.78,0.25-5.88-1.9c-0.8-1.56-0.57-3.36,0.43-4.66c-4.95-10.73-8-22.36-8.87-34.35
							c-0.8-11.09,0.27-22.47,3.43-33.72c-1.19-1.12-1.71-2.87-1.17-4.53c0.74-2.3,3.21-3.55,5.5-2.81c2.3,0.74,3.55,3.21,2.81,5.5
							c-0.52,1.6-1.88,2.7-3.43,2.96c-3.02,10.79-4.04,21.7-3.28,32.32C51.24,164.76,54.16,175.91,58.91,186.21z M128.22,239.91
							c0.91-1.28,2.49-2.02,4.16-1.79c2.39,0.33,4.06,2.54,3.72,4.93c-0.33,2.39-2.54,4.06-4.93,3.72
							c-1.73-0.24-3.08-1.46-3.57-3.03c-11.51-2.07-22.67-6.19-32.91-12.26c-9.66-5.73-18.48-13.2-25.96-22.34
							c-1.6,0.34-3.33-0.25-4.39-1.64c-1.45-1.93-1.07-4.66,0.86-6.12c1.93-1.45,4.66-1.07,6.12,0.85c1.02,1.35,1.13,3.09,0.46,4.51
							c7.18,8.76,15.64,15.92,24.9,21.41C106.47,233.97,117.17,237.91,128.22,239.91z M205.21,220.05
							c-0.38-1.53,0.08-3.21,1.34-4.33c1.81-1.6,4.57-1.43,6.17,0.37c1.6,1.81,1.43,4.57-0.37,6.17c-1.31,1.16-3.11,1.39-4.62,0.75
							c-7.43,6.08-15.75,11.09-24.74,14.82c-8.44,3.5-17.47,5.86-26.89,6.9c-0.59,1.52-2.02,2.65-3.76,2.77
							c-2.41,0.17-4.5-1.64-4.67-4.05c-0.17-2.41,1.64-4.5,4.05-4.67c1.68-0.12,3.21,0.73,4.04,2.08c9.02-1,17.66-3.27,25.74-6.62
							C190.11,230.67,198.09,225.87,205.21,220.05z M210.26,77.34c-1.47,0.58-3.19,0.34-4.46-0.77c-1.82-1.58-2.02-4.34-0.44-6.16
							c1.58-1.82,4.34-2.02,6.16-0.44c1.32,1.14,1.79,2.91,1.34,4.48c18.95,17.8,29.38,41.46,30.93,65.69
							c1.53,23.81-5.51,48.18-21.44,68.07c0.66,1.5,0.45,3.31-0.7,4.63c-1.58,1.82-4.34,2.02-6.16,0.44
							c-1.82-1.58-2.02-4.34-0.44-6.16c1.1-1.27,2.78-1.75,4.31-1.39c15.28-19.1,22.03-42.49,20.56-65.34
							C238.44,117.14,228.44,94.44,210.26,77.34z M61.6,93.67C75.34,71.9,96.33,57.23,119.58,51c23.49-6.29,49.29-3.97,72.25,8.34
							c1.35-0.92,3.17-1.04,4.68-0.16c2.08,1.22,2.77,3.9,1.55,5.98c-1.22,2.08-3.9,2.77-5.98,1.55c-1.45-0.85-2.23-2.41-2.15-3.98
							c-22.04-11.8-46.8-14.02-69.34-7.98C98.27,60.73,78.13,74.8,64.93,95.68c0.84,1.33,0.94,3.07,0.09,4.53
							c-1.21,2.09-3.88,2.81-5.97,1.6c-2.09-1.21-2.81-3.88-1.6-5.97C58.33,94.33,59.97,93.54,61.6,93.67z M67.19,139.56
							c1.13,0.66,1.85,1.91,1.78,3.31c-0.1,2-1.8,3.53-3.8,3.43c-2-0.1-3.54-1.81-3.43-3.8c0.07-1.45,0.99-2.65,2.24-3.17
							c0.89-9.76,3.52-19.38,7.87-28.35c4.02-8.3,9.51-16.03,16.44-22.8c-0.39-1.3-0.04-2.77,1.04-3.74
							c1.49-1.34,3.78-1.22,5.12,0.26c1.34,1.49,1.22,3.78-0.26,5.12c-1.04,0.94-2.47,1.16-3.69,0.71
							c-6.64,6.5-11.9,13.91-15.76,21.86C70.57,120.97,68.05,130.19,67.19,139.56z M94.69,206.87c1.19-0.54,2.63-0.42,3.73,0.44
							c1.58,1.23,1.86,3.51,0.63,5.09c-1.23,1.58-3.51,1.86-5.08,0.63c-1.14-0.89-1.61-2.33-1.31-3.65
							c-7.4-6.26-13.72-13.85-18.55-22.45c-4.56-8.12-7.8-17.14-9.38-26.81c-1.29-0.42-2.29-1.56-2.47-3
							c-0.25-1.99,1.16-3.79,3.15-4.04c1.99-0.25,3.79,1.16,4.04,3.15c0.17,1.39-0.47,2.69-1.54,3.43c1.53,9.27,4.63,17.92,9,25.7
							C81.54,193.58,87.59,200.85,94.69,206.87z M158.23,224.53c0.36-1.26,1.39-2.27,2.76-2.56c1.96-0.4,3.87,0.86,4.27,2.82
							c0.4,1.96-0.86,3.87-2.82,4.28c-1.42,0.29-2.81-0.29-3.63-1.38c-7.85,1.29-15.91,1.44-23.92,0.38
							c-7.51-0.99-14.98-3.03-22.17-6.2c-1.06,0.85-2.55,1.06-3.85,0.43c-1.8-0.88-2.55-3.04-1.67-4.84
							c0.87-1.8,3.04-2.55,4.84-1.67c1.26,0.61,2,1.86,2.04,3.17c6.89,3.02,14.04,4.98,21.23,5.92
							C142.98,225.9,150.7,225.75,158.23,224.53z M221.03,124.13c-1.29-0.19-2.43-1.08-2.89-2.4c-0.65-1.89,0.35-3.95,2.24-4.61
							c1.89-0.65,3.95,0.35,4.61,2.24c0.47,1.37,0.08,2.83-0.89,3.78c6.23,20.64,3.91,41.96-5.02,60.01
							c-8.78,17.74-23.94,32.32-43.63,39.99c-0.15,1.35-1.05,2.56-2.42,3.03c-1.89,0.65-3.95-0.35-4.61-2.24
							c-0.65-1.89,0.35-3.95,2.24-4.61c1.32-0.46,2.72-0.11,3.67,0.79c18.89-7.39,33.44-21.38,41.86-38.41
							C224.77,164.39,227,143.94,221.03,124.13z M107.49,74.21c18.89-9.94,40.05-11.77,59.34-6.61
							c19.48,5.22,37.05,17.59,48.43,35.95c1.35-0.1,2.71,0.57,3.42,1.83c0.99,1.74,0.37,3.95-1.37,4.94
							c-1.74,0.99-3.95,0.38-4.94-1.37c-0.69-1.21-0.6-2.66,0.11-3.75c-10.94-17.61-27.8-29.48-46.5-34.49
							c-18.5-4.96-38.81-3.21-56.94,6.32c0.05,1.3-0.6,2.59-1.81,3.29c-1.73,1-3.95,0.41-4.95-1.33c-1-1.73-0.41-3.95,1.33-4.95
							C104.87,73.33,106.38,73.44,107.49,74.21z M104.73,98.58c0.26,1.02-0.03,2.15-0.87,2.9c-1.2,1.08-3.04,0.99-4.12-0.21
							c-1.08-1.2-0.99-3.04,0.21-4.13c0.87-0.78,2.07-0.95,3.09-0.53c6.07-5.06,13.05-9.04,20.65-11.67
							c7.02-2.44,14.56-3.71,22.37-3.62c0.52-0.97,1.56-1.6,2.73-1.54c1.61,0.08,2.85,1.46,2.77,3.07
							c-0.08,1.61-1.46,2.85-3.07,2.77c-1.13-0.06-2.07-0.74-2.51-1.7c-7.49-0.08-14.72,1.15-21.44,3.48
							C117.25,89.92,110.55,93.73,104.73,98.58z M82.04,152.63c0.99,0.37,1.74,1.26,1.88,2.38c0.2,1.6-0.94,3.06-2.54,3.26
							c-1.6,0.2-3.06-0.94-3.26-2.54c-0.14-1.16,0.41-2.24,1.34-2.83c-0.65-7.79,0.07-15.71,2.22-23.37
							c2.03-7.23,5.33-14.22,9.94-20.63c-0.5-0.98-0.42-2.2,0.3-3.12c0.99-1.27,2.83-1.5,4.1-0.51c1.27,0.99,1.5,2.83,0.51,4.1
							c-0.69,0.89-1.8,1.27-2.84,1.08c-4.41,6.15-7.57,12.86-9.52,19.78C82.11,137.55,81.42,145.15,82.04,152.63z M108.19,198.91
							c0.92-0.51,2.09-0.5,3.03,0.12c1.35,0.89,1.72,2.7,0.83,4.05c-0.89,1.35-2.7,1.72-4.05,0.83c-0.97-0.64-1.44-1.77-1.28-2.85
							c-5.21-3.74-9.89-8.25-13.85-13.41c-3.72-4.85-6.81-10.27-9.11-16.17c-1.09-0.12-2.06-0.85-2.44-1.95
							c-0.53-1.52,0.28-3.19,1.81-3.71c1.52-0.53,3.19,0.28,3.71,1.81c0.37,1.07,0.08,2.2-0.64,2.97
							c2.21,5.65,5.17,10.84,8.73,15.48C98.72,191,103.2,195.32,108.19,198.91z M201.22,177.48c-0.62-0.85-0.77-2-0.28-3.02
							c0.71-1.45,2.45-2.05,3.91-1.35c1.45,0.7,2.05,2.45,1.35,3.9c-0.51,1.05-1.57,1.66-2.66,1.64
							c-8.21,15.32-21.69,26.14-37.07,31.34c-15.11,5.11-32.06,4.78-47.66-2.07c-0.85,0.69-2.06,0.86-3.11,0.35
							c-1.45-0.7-2.05-2.45-1.35-3.9c0.71-1.45,2.45-2.05,3.91-1.35c1.01,0.49,1.61,1.49,1.64,2.54
							c14.98,6.56,31.25,6.87,45.75,1.97C180.39,202.56,193.32,192.18,201.22,177.48z M164.95,84.31
							c16.44,5.1,29.54,16.12,37.59,30.06c8.13,14.08,11.09,31.14,7.11,48.1c0.83,0.71,1.22,1.87,0.91,2.99
							c-0.43,1.55-2.04,2.47-3.59,2.04c-1.55-0.43-2.47-2.04-2.04-3.59c0.3-1.08,1.17-1.85,2.2-2.08
							c3.81-16.28,0.96-32.65-6.85-46.16c-7.72-13.37-20.29-23.95-36.06-28.86c-0.71,0.77-1.82,1.14-2.91,0.84
							c-1.56-0.42-2.48-2.02-2.07-3.58c0.42-1.56,2.02-2.48,3.58-2.07C163.96,82.31,164.76,83.23,164.95,84.31z M31.65,141.81
							c1.17-29.79,13.73-56.65,33.44-76.36c19.91-19.91,47.13-32.52,77.29-33.47c0.82-1.71,2.58-2.88,4.6-2.86
							c2.79,0.02,5.04,2.31,5.02,5.1c-0.02,2.79-2.31,5.04-5.1,5.02c-1.95-0.02-3.63-1.13-4.46-2.75
							c-28.94,0.93-55.05,13.04-74.16,32.15C49.35,87.55,37.3,113.32,36.15,141.9c1.61,0.84,2.72,2.54,2.72,4.48
							c0,2.79-2.27,5.06-5.06,5.06c-2.79,0-5.06-2.27-5.06-5.06C28.75,144.37,29.93,142.62,31.65,141.81z"/>
					</defs>
					<clipPath id="SVGID_00000158722954333717384380000012489029556491461544_">
						<use xlink:href="#SVGID_00000002353635104322469770000009689238051987657116_"  style="overflow:visible;"/>
					</clipPath>
				</g>
			</g>
		</g>
	</g>
	<g>
		<defs>
			<path id="SVGID_00000021114327725829928670000003508334696533744289_" d="M145,88.94c32.33,0,58.54,26.21,58.54,58.54
				c0,32.33-26.21,58.54-58.54,58.54s-58.54-26.21-58.54-58.54C86.47,115.14,112.67,88.94,145,88.94z"/>
		</defs>
		<clipPath id="SVGID_00000159447099124739550140000008602297243255837371_">
			<use xlink:href="#SVGID_00000021114327725829928670000003508334696533744289_"  style="overflow:visible;"/>
		</clipPath>
		
			<linearGradient id="SVGID_00000180324277905206117470000014475949489903164562_" gradientUnits="userSpaceOnUse" x1="28.7474" y1="145.0648" x2="263.6465" y2="145.0648">
			<stop  offset="0" style="stop-color:#F8973D"/>
			<stop  offset="0.4791" style="stop-color:#F7BB2E"/>
			<stop  offset="0.8199" style="stop-color:#F99F34"/>
			<stop  offset="1" style="stop-color:#ED7B37"/>
		</linearGradient>
		
			<rect x="28.75" y="29.1" style="clip-path:url(#SVGID_00000159447099124739550140000008602297243255837371_);fill:url(#SVGID_00000180324277905206117470000014475949489903164562_);" width="234.9" height="231.93"/>
	</g>
	<path class="st3" d="M145,108.84c19.97,0,36.15,16.19,36.15,36.15c0,19.97-16.19,36.15-36.15,36.15
		c-19.97,0-36.15-16.19-36.15-36.15C108.85,125.03,125.04,108.84,145,108.84 M145,78.47c38.11,0,69,30.89,69,69
		c0,38.11-30.89,69-69,69s-69-30.89-69-69C76,109.37,106.89,78.47,145,78.47z"/>
	<path class="st4" d="M145.01,0.79C65.36,0.79,0.8,65.34,0.8,145c0,79.63,64.56,144.21,144.21,144.21
		c79.63,0,144.19-64.58,144.19-144.21C289.2,65.34,224.64,0.79,145.01,0.79z M145.01,270.95c-69.57,0-125.97-56.38-125.97-125.95
		S75.44,19.05,145.01,19.05c69.55,0,125.95,56.38,125.95,125.95S214.56,270.95,145.01,270.95z"/>
</g>
<g>
</g>
<g>
</g>
<g>
</g>
<g>
</g>
<g>
</g>
<g>
</g>
</svg>
